Coordinates
datacolumns 6
datarows 181
range 0 1.8
inDegrees=yes
Units are S.I. units (second, meters, Newtons, ...)
If the header above contains a line with 'inDegrees', this indicates whether rotational values are in degrees (yes) or radians (no).
endheader
time	foot_tx	hip_flexion_r	knee_angle_r	ankle_angle_r	lumbar
0	0.20119001	58.92339769	-65.99185427	-1.0430667	-29.64694199
0.01	0.20089371	59.10397286	-65.99996797	-0.99260526	-29.94150601
0.02	0.20067977	59.28796709	-65.99616271	-0.9503627	-30.24657419
0.03	0.2005526	59.48406935	-65.98136949	-0.91714487	-30.55394335
0.04	0.20050768	59.69979871	-65.95575614	-0.89391544	-30.85755245
0.05	0.20053151	59.97313193	-65.92266474	-0.88210321	-31.11738745
0.06	0.20058296	60.22948132	-65.88498748	-0.8709008	-31.41702492
0.07	0.20066208	60.53596771	-65.84398584	-0.86615572	-31.68179042
0.08	0.20072425	60.91054402	-65.80707206	-0.86208915	-31.8925525
0.09	0.20076598	61.29565288	-65.7706641	-0.8544367	-32.11021114
0.1	0.20077665	61.69609151	-65.73705086	-0.84055984	-32.3270691
0.11	0.20075629	62.10274905	-65.70493827	-0.81938693	-32.55131342
0.12	0.2007162	62.50820485	-65.672821	-0.79099613	-32.78987441
0.13	0.20066912	62.9113521	-65.63887934	-0.75672341	-33.04332411
0.14	0.20062214	63.31339555	-65.60283865	-0.71706113	-33.31036199
0.15	0.20058966	63.7165169	-65.56229223	-0.67450873	-33.58828667
0.16	0.20057071	64.12673236	-65.51763436	-0.62954299	-33.8712844
0.17	0.20056365	64.55149284	-65.46851439	-0.5833555	-34.15186928
0.18	0.20056903	64.99627234	-65.41616876	-0.53629617	-34.42374543
0.19	0.20057484	65.46994049	-65.36147761	-0.48843057	-34.67818524
0.2	0.20058361	65.97557903	-65.30566989	-0.43992218	-34.91063013
0.21	0.20058246	66.5184338	-65.2501974	-0.38942345	-35.11552855
0.22	0.20057884	67.09480168	-65.19474266	-0.3369326	-35.2947031
0.23	0.20057642	67.70486114	-65.14088712	-0.2809749	-35.44504088
0.24	0.20056876	68.33938891	-65.08696632	-0.21979438	-35.575021
0.25	0.20056918	68.99426705	-65.03321499	-0.15254576	-35.68538317
0.26	0.20057925	69.66337163	-64.97996186	-0.07770338	-35.78074653
0.27	0.2005966	70.34520431	-64.92718346	0.00557295	-35.86200786
0.28	0.20063014	71.03996525	-64.87328304	0.09595566	-35.92817886
0.29	0.20067717	71.74611781	-64.81634688	0.19300325	-35.98116973
0.3	0.20074021	72.47041791	-64.75662838	0.29617734	-36.01307201
0.31	0.20081539	73.21169217	-64.69180358	0.40487513	-36.02527802
0.32	0.20090495	73.97433568	-64.62133927	0.51841227	-36.01159719
0.33	0.20099406	74.74771117	-64.54466166	0.63861127	-35.98307159
0.34	0.20112879	75.54051752	-64.4486248	0.75515637	-35.9274316
0.35	0.20126926	76.34735336	-64.34257933	0.87635327	-35.84695254
0.36	0.20143181	77.16512582	-64.22031935	0.9986657	-35.74117782
0.37	0.20162665	77.99010386	-64.07488272	1.1185432	-35.61005958
0.38	0.20184726	78.81392013	-63.9085404	1.23883174	-35.45815566
0.39	0.20210163	79.63224267	-63.71795387	1.35798794	-35.28573937
0.4	0.20238456	80.43430312	-63.50347631	1.47742759	-35.1007099
0.41	0.2026908	81.21175578	-63.26631071	1.59842432	-34.90858415
0.42	0.20301027	81.95933429	-63.00889935	1.72265306	-34.71155657
0.43	0.20333592	82.67188004	-62.73478594	1.85209936	-34.51205906
0.44	0.20365023	83.35013547	-62.44933352	1.98957201	-34.30527777
0.45	0.20394432	83.99463557	-62.15699705	2.13653893	-34.08670468
0.46	0.20420713	84.60165583	-61.86326206	2.29513976	-33.85633017
0.47	0.20444306	85.16341555	-61.57045913	2.46482966	-33.61942248
0.48	0.20464491	85.67296708	-61.28317171	2.64664958	-33.37999377
0.49	0.20481486	86.11992139	-61.00454504	2.84042919	-33.14739448
0.5	0.20495369	86.4974505	-60.73829885	3.04620735	-32.92735096
0.51	0.20506471	86.80578135	-60.48764202	3.26308374	-32.71877392
0.52	0.20515121	87.04019992	-60.25448257	3.49065935	-32.52488531
0.53	0.20521667	87.20857199	-60.04206864	3.72851237	-32.33667702
0.54	0.20527874	87.31055982	-59.847716	3.97371101	-32.15387954
0.55	0.2053393	87.35125592	-59.67381307	4.22668873	-31.97024723
0.56	0.20540304	87.32755765	-59.51669081	4.48562866	-31.79012359
0.57	0.20547632	87.23877444	-59.37332602	4.74888676	-31.61544584
0.58	0.20556007	87.07737237	-59.24160375	5.01622788	-31.45680423
0.59	0.20565614	86.87865093	-59.11319822	5.28091025	-31.2731412
0.6	0.20576004	86.64030253	-58.98765327	5.54358947	-31.0700214
0.61	0.20586102	86.33141982	-58.85944795	5.80525905	-30.88782359
0.62	0.20596451	86.02973161	-58.72621986	6.05853725	-30.63541505
0.63	0.20606356	85.69559169	-58.5837442	6.30542102	-30.36423319
0.64	0.20617408	85.34265169	-58.42074636	6.53818683	-30.06183617
0.65	0.20627557	84.96192259	-58.24127542	6.76132708	-29.74229606
0.66	0.20637361	84.5607375	-58.04011038	6.97126048	-29.40034037
0.67	0.20647631	84.13809302	-57.8109698	7.16442797	-29.04054918
0.68	0.20658368	83.69205594	-57.55262193	7.34026463	-28.66858979
0.69	0.20670225	83.21845062	-57.26201854	7.49685524	-28.29209518
0.7	0.20680961	82.65841745	-56.94311766	7.64204177	-27.98489577
0.71	0.20693068	82.07682764	-56.58807028	7.76496042	-27.67046119
0.72	0.20705103	81.45196276	-56.19989566	7.86973372	-27.37730716
0.73	0.20717131	80.79267043	-55.77657258	7.95424404	-27.09666568
0.74	0.20728422	80.10306085	-55.31960379	8.0194896	-26.82588237
0.75	0.2073885	79.39107619	-54.82832609	8.06448064	-26.55732981
0.76	0.20748481	78.662419	-54.30286531	8.08881766	-26.28593317
0.77	0.20756994	77.91882142	-53.74421212	8.09332633	-26.01166308
0.78	0.20765227	77.16605935	-53.15260087	8.07741466	-25.72787667
0.79	0.2077361	76.40616851	-52.52719608	8.04041743	-25.43377187
0.8	0.20780615	75.63511416	-51.87170913	7.98627957	-25.13480883
0.81	0.20787106	74.85395952	-51.18584989	7.91431647	-24.82935517
0.82	0.20792697	74.06495201	-50.47064483	7.82531718	-24.51479215
0.83	0.2079705	73.26481269	-49.72841149	7.72099408	-24.19482794
0.84	0.2080062	72.4570274	-48.9594712	7.60071419	-23.86422167
0.85	0.20803017	71.63716081	-48.16509068	7.46567388	-23.52801034
0.86	0.20803733	70.81023992	-47.34609716	7.31626602	-23.18097019
0.87	0.20802836	69.97090131	-46.50468394	7.1538995	-22.82898436
0.88	0.20800365	69.12224532	-45.64245879	6.97925195	-22.46854695
0.89	0.20796154	68.26362716	-44.76253756	6.79425654	-22.10116046
0.9	0.20790208	67.39945281	-43.8670495	6.60003388	-21.7222126
0.91	0.20782311	66.52511017	-42.95947886	6.3991015	-21.33748759
0.92	0.20772228	65.63901454	-42.04235698	6.19362011	-20.94903347
0.93	0.2076028	64.73981509	-41.11741215	5.98460358	-20.55900702
0.94	0.2074626	63.82126256	-40.1877036	5.7746672	-20.17365995
0.95	0.20730932	62.89036028	-39.25435648	5.56361832	-19.78782999
0.96	0.20714096	61.93382286	-38.3196044	5.35413125	-19.41473851
0.97	0.2069688	60.95727285	-37.38535512	5.14632126	-19.04924826
0.98	0.20679727	59.95806965	-36.45279772	4.94101525	-18.69442378
0.99	0.20663055	58.93588474	-35.52383332	4.73914226	-18.35189842
1	0.20647194	57.8999348	-34.59876614	4.54009878	-18.01062328
1.01	0.20632243	56.84405837	-33.68149842	4.34626814	-17.68038311
1.02	0.20617874	55.77638443	-32.7714628	4.15710573	-17.3515304
1.03	0.20603994	54.69463676	-31.87069515	3.97400185	-17.02789767
1.04	0.20590023	53.59873402	-30.9818166	3.79907838	-16.70932012
1.05	0.20575772	52.491838	-30.102902	3.63151096	-16.39310043
1.06	0.20560749	51.37345569	-29.23491444	3.47248674	-16.07989069
1.07	0.20545096	50.24556239	-28.37799645	3.32192104	-15.76851331
1.08	0.20528801	49.11347466	-27.53219079	3.17944085	-15.45379225
1.09	0.20512168	47.9807805	-26.69799845	3.04460347	-15.13324286
1.1	0.20495627	46.85207777	-25.87625079	2.91693316	-14.80354176
1.11	0.20479626	45.73185433	-25.06830745	2.79623605	-14.46159559
1.12	0.20464528	44.62429998	-24.27621407	2.68275367	-14.10484042
1.13	0.2045087	43.53083924	-23.50177963	2.57671762	-13.73377211
1.14	0.20438193	42.45144518	-22.74736703	2.47960932	-13.35018858
1.15	0.20426525	41.38516031	-22.014258	2.3921545	-12.9562467
1.16	0.20416024	40.33368528	-21.3009654	2.31346412	-12.55032361
1.17	0.20407108	39.29428307	-20.60670908	2.24296438	-12.13788683
1.18	0.20399488	38.2674083	-19.93231646	2.18141452	-11.71853268
1.19	0.20393864	37.25556771	-19.27544728	2.12673319	-11.29273748
1.2	0.20391016	36.25661748	-18.63522401	2.07781408	-10.8657176
1.21	0.20390986	35.27397637	-18.01349042	2.03513731	-10.43662768
1.22	0.20394354	34.30981802	-17.40852415	1.99704789	-10.00489893
1.23	0.20401134	33.36558627	-16.82314435	1.96450132	-9.57319755
1.24	0.20411772	32.44347633	-16.25627475	1.93616891	-9.1410021
1.25	0.20426257	31.54635018	-15.70902229	1.91203104	-8.70832991
1.26	0.20444227	30.67427614	-15.1828635	1.89270874	-8.27800983
1.27	0.20465736	29.82877019	-14.67785976	1.87780365	-7.84985079
1.28	0.20490806	29.0095411	-14.19468537	1.86719291	-7.42770306
1.29	0.20518121	28.21870336	-13.73324862	1.86186095	-7.00494669
1.3	0.20547822	27.45287739	-13.29455318	1.8616247	-6.59126798
1.31	0.20578763	26.71621494	-12.87765887	1.86638056	-6.18027319
1.32	0.20609898	26.00449932	-12.48330208	1.87730155	-5.77645964
1.33	0.20640852	25.31962339	-12.10982021	1.89338775	-5.37790517
1.34	0.20671274	24.66133256	-11.75555179	1.91395192	-4.98434359
1.35	0.20701217	24.02943499	-11.41807464	1.93764368	-4.59570018
1.36	0.20730768	23.42447656	-11.09477622	1.96292721	-4.21115545
1.37	0.20759954	22.84680256	-10.78361936	1.9885363	-3.8306594
1.38	0.20787918	22.29742787	-10.48211089	2.01365476	-3.45167714
1.39	0.20814363	21.77640367	-10.18977266	2.03783684	-3.07604742
1.4	0.20837634	21.27681363	-9.90568833	2.06256188	-2.70577429
1.41	0.20857826	20.80122493	-9.6300783	2.08708894	-2.34250546
1.42	0.20873611	20.34237084	-9.36223448	2.11299975	-1.98735784
1.43	0.20885827	19.90023404	-9.10225453	2.13941702	-1.64359206
1.44	0.20894622	19.47183299	-8.8493177	2.16625305	-1.31188117
1.45	0.20900618	19.05668121	-8.60191447	2.19229954	-0.99195194
1.46	0.20904466	18.65383316	-8.3589925	2.21658533	-0.68458541
1.47	0.20906672	18.26318412	-8.11923846	2.23804672	-0.38901178
1.48	0.20907443	17.88410539	-7.88172142	2.25610851	-0.10479729
1.49	0.20906775	17.5169512	-7.64446264	2.26984437	0.171446
1.5	0.20904066	17.15820716	-7.40541317	2.27895366	0.43869735
1.51	0.20899647	16.80897895	-7.16525849	2.28349413	0.69816918
1.52	0.2089308	16.46780125	-6.92212837	2.28313255	0.9515611
1.53	0.20884504	16.13522503	-6.67734458	2.27850757	1.19922756
1.54	0.20873847	15.80763575	-6.43086994	2.27029246	1.44001123
1.55	0.20861345	15.48794709	-6.18352538	2.25867641	1.67611434
1.56	0.20847208	15.1743662	-5.9374865	2.24517836	1.9052411
1.57	0.20831703	14.86592099	-5.69351172	2.23038986	2.12658059
1.58	0.20815417	14.56267235	-5.45159785	2.21407765	2.34024595
1.59	0.20797917	14.26410533	-5.2153388	2.19842592	2.54296937
1.6	0.20779787	13.97231728	-4.98487	2.18290488	2.73632988
1.61	0.20761231	13.6877453	-4.76175259	2.16813897	2.9194033
1.62	0.20742606	13.41195607	-4.54732797	2.15454758	3.09301779
1.63	0.20724244	13.14723193	-4.3428292	2.14264406	3.25982624
1.64	0.20706388	12.89332375	-4.14998767	2.13351997	3.4195345
1.65	0.20689282	12.65062627	-3.96945892	2.12772674	3.57412954
1.66	0.2067313	12.41988494	-3.80276644	2.12614015	3.72423033
1.67	0.20658771	12.20111962	-3.64987867	2.12850725	3.8714786
1.68	0.20646243	12.02072808	-3.51700595	2.13614081	4.0416844
1.69	0.20635898	11.80138706	-3.39380993	2.14845446	4.15067637
1.7	0.20628648	11.63946203	-3.29594004	2.1666533	4.30070112
1.71	0.20624426	11.45319003	-3.2131945	2.19099829	4.40248045
1.72	0.20624033	11.3118594	-3.15509821	2.22158537	4.53116913
1.73	0.20627213	11.15076885	-3.11287351	2.25852101	4.61687513
1.74	0.2063386	11.02575232	-3.09257951	2.30155858	4.72202419
1.75	0.20643504	10.88592918	-3.08672925	2.35038693	4.79109066
1.76	0.2065565	10.77578794	-3.09624962	2.40304457	4.87697202
1.77	0.2067007	10.6551808	-3.11213845	2.45779446	4.93869203
1.78	0.20684135	10.53734603	-3.14556992	2.52013804	4.98274544
1.79	0.2069963	10.4484796	-3.18022244	2.57988354	5.05362316
1.8	0.20714721	10.32720042	-3.21812469	2.64228209	5.07536488
